<svg aria-hidden="true" style="position: absolute; width: 0; height: 0; overflow: hidden;" version="1.1" xmlns="http://www.w3.org/2000/svg" xmlns:xlink="http://www.w3.org/1999/xlink">
<defs>
<symbol id="icon-trophy" viewBox="0 0 32 32">
<title>trophy</title>
<path d="M21 25h3v4h-15v-4h3v-3h4v-4c-3.309-0.003-6-2.685-6-5.993v-0.007c-3.5-1.5-4-9-4-9h21c0 0-0.5 7.5-4 9v0.007c0 3.31-2.686 5.99-6 5.993v4h4v3zM11 4v7.992c0 2.766 2.239 5.008 5.001 5.008h0.998c2.762 0 5.001-2.235 5.001-5.008v-7.992h-11zM10 4h-2.9c0 0 0.554 5.221 2.9 6.9v-6.9zM22.982 4v6.88c2.346-1.679 2.9-6.88 2.9-6.88h-2.9zM13 23v2h7v-2h-7zM10 26v2h13v-2h-13z"></path>
</symbol>
<symbol id="icon-news" viewBox="0 0 32 32">
<title>news</title>
<path d="M29 0h-22c-1.657 0-3 1.342-3 3v2h-1c-1.657 0-3 1.342-3 3v20c0 2.209 1.791 4 4 4h24c2.209 0 4-1.791 4-4v-25c0-1.658-1.344-3-3-3zM30 28c0 1.102-0.898 2-2 2h-24c-1.103 0-2-0.898-2-2v-20c0-0.552 0.448-1 1-1h1v20c0 0.553 0.447 1 1 1s1-0.447 1-1v-24c0-0.552 0.448-1 1-1h22c0.551 0 1 0.448 1 1v25zM19.498 13.005c-0.275 0-0.5-0.224-0.5-0.5s0.225-0.5 0.5-0.5h8c0.277 0 0.5 0.224 0.5 0.5s-0.223 0.5-0.5 0.5h-8zM19.498 10.005c-0.275 0-0.5-0.224-0.5-0.5s0.225-0.5 0.5-0.5h8c0.277 0 0.5 0.224 0.5 0.5s-0.223 0.5-0.5 0.5h-8zM19.498 7.005c-0.275 0-0.5-0.224-0.5-0.5s0.225-0.5 0.5-0.5h8c0.277 0 0.5 0.224 0.5 0.5s-0.223 0.5-0.5 0.5h-8zM16.5 27.004c0.276 0 0.5 0.225 0.5 0.5 0 0.277-0.225 0.5-0.5 0.5h-8c-0.276 0-0.5-0.223-0.5-0.5 0-0.275 0.224-0.5 0.5-0.5h8zM16.5 24.004c0.276 0 0.5 0.225 0.5 0.5 0 0.277-0.225 0.5-0.5 0.5h-8c-0.276 0-0.5-0.223-0.5-0.5 0-0.275 0.224-0.5 0.5-0.5h8zM16.5 21.004c0.276 0 0.5 0.225 0.5 0.5 0 0.277-0.225 0.5-0.5 0.5h-8c-0.276 0-0.5-0.223-0.5-0.5 0-0.275 0.224-0.5 0.5-0.5h8zM27.5 27.004c0.275 0 0.5 0.225 0.5 0.5 0 0.277-0.225 0.5-0.5 0.5h-8c-0.277 0-0.5-0.223-0.5-0.5 0-0.275 0.223-0.5 0.5-0.5h8zM27.5 24.004c0.275 0 0.5 0.225 0.5 0.5 0 0.277-0.225 0.5-0.5 0.5h-8c-0.277 0-0.5-0.223-0.5-0.5 0-0.275 0.223-0.5 0.5-0.5h8zM27.5 21.004c0.275 0 0.5 0.225 0.5 0.5 0 0.277-0.225 0.5-0.5 0.5h-8c-0.277 0-0.5-0.223-0.5-0.5 0-0.275 0.223-0.5 0.5-0.5h8zM27.5 15.004c0.275 0 0.5 0.224 0.5 0.5s-0.225 0.5-0.5 0.5h-19c-0.276 0-0.5-0.224-0.5-0.5s0.224-0.5 0.5-0.5h19zM27.5 18.004c0.275 0 0.5 0.225 0.5 0.5 0 0.277-0.225 0.5-0.5 0.5h-19c-0.276 0-0.5-0.223-0.5-0.5 0-0.275 0.224-0.5 0.5-0.5h19zM9 13h7c0.553 0 1-0.447 1-1v-6.996c0-0.553-0.447-1-1-1h-7c-0.553 0-1 0.447-1 1v6.996c0 0.552 0.447 1 1 1zM10 6h5v5h-5v-5z"></path>
</symbol>
<symbol id="icon-mail" viewBox="0 0 32 32">
<title>mail</title>
<path d="M28 5h-24c-2.209 0-4 1.792-4 4v13c0 2.209 1.791 4 4 4h24c2.209 0 4-1.791 4-4v-13c0-2.208-1.791-4-4-4zM2 10.25l6.999 5.25-6.999 5.25v-10.5zM30 22c0 1.104-0.898 2-2 2h-24c-1.103 0-2-0.896-2-2l7.832-5.875 4.368 3.277c0.533 0.398 1.166 0.6 1.8 0.6 0.633 0 1.266-0.201 1.799-0.6l4.369-3.277 7.832 5.875zM30 20.75l-7-5.25 7-5.25v10.5zM17.199 18.602c-0.349 0.262-0.763 0.4-1.199 0.4s-0.851-0.139-1.2-0.4l-12.8-9.602c0-1.103 0.897-2 2-2h24c1.102 0 2 0.897 2 2l-12.801 9.602z"></path>
</symbol>
<symbol id="icon-newspaper-o" viewBox="0 0 32 28">
<title>newspaper-o</title>
<path d="M16 8h-6v6h6v-6zM18 18v2h-10v-2h10zM18 6v10h-10v-10h10zM28 18v2h-8v-2h8zM28 14v2h-8v-2h8zM28 10v2h-8v-2h8zM28 6v2h-8v-2h8zM4 21v-15h-2v15c0 0.547 0.453 1 1 1s1-0.453 1-1zM30 21v-17h-24v17c0 0.344-0.063 0.688-0.172 1h23.172c0.547 0 1-0.453 1-1zM32 2v19c0 1.656-1.344 3-3 3h-26c-1.656 0-3-1.344-3-3v-17h4v-2h28z"></path>
</symbol>
<symbol id="icon-store-front" viewBox="0 0 20 20">
<title>store-front</title>
<path d="M18 9.87v10.13h-16v-10.13c0.301 0.076 0.646 0.12 1.001 0.12 0.732 0 1.42-0.185 2.022-0.511l-0.022 0.011v4.51h10v-4.5c0.576 0.31 1.261 0.492 1.988 0.492 0.359 0 0.708-0.045 1.042-0.128l-0.029 0.006zM3 0h4l-0.67 6.030c-0.231 1.663-1.627 2.935-3.326 2.97l-0.004 0c-1.66 0-2.58-1.27-2.050-2.85l2.050-6.15zM8 0h4l0.7 6.3c0.17 1.5-0.91 2.7-2.42 2.7h-0.56c-0.018 0.001-0.040 0.001-0.062 0.001-1.314 0-2.38-1.066-2.38-2.38 0-0.113 0.008-0.224 0.023-0.333l-0.001 0.013 0.7-6.3zM13 0h4l2.050 6.15c0.53 1.58-0.4 2.85-2.050 2.85-1.705-0.031-3.103-1.305-3.328-2.952l-0.002-0.018-0.67-6.030z"></path>
</symbol>
<symbol id="icon-mail1" viewBox="0 0 20 20">
<title>mail1</title>
<path d="M1.574 5.286c0.488 0.262 7.248 3.894 7.5 4.029s0.578 0.199 0.906 0.199c0.328 0 0.654-0.064 0.906-0.199s7.012-3.767 7.5-4.029c0.489-0.263 0.951-1.286 0.054-1.286h-16.919c-0.897 0-0.435 1.023 0.053 1.286zM18.613 7.489c-0.555 0.289-7.387 3.849-7.727 4.027s-0.578 0.199-0.906 0.199-0.566-0.021-0.906-0.199-7.133-3.739-7.688-4.028c-0.39-0.204-0.386 0.035-0.386 0.219s0 7.293 0 7.293c0 0.42 0.566 1 1 1h16c0.434 0 1-0.58 1-1 0 0 0-7.108 0-7.292s0.004-0.423-0.387-0.219z"></path>
</symbol>
<symbol id="icon-network" viewBox="0 0 20 20">
<title>network</title>
<path d="M5.274 6.915c0.2 0 0.394 0.029 0.576 0.086 0.69-0.773 1.455-1.477 2.283-2.1-0.035-0.146-0.054-0.299-0.054-0.455 0-0.217 0.036-0.426 0.102-0.621-0.929-0.664-1.937-1.223-3.011-1.654-1.005 0.621-1.882 1.431-2.582 2.381 0.519 0.92 1.136 1.777 1.838 2.557 0.256-0.124 0.543-0.194 0.848-0.194zM3.316 8.872c0-0.275 0.058-0.537 0.159-0.773-0.628-0.692-1.197-1.436-1.695-2.229-0.625 1.242-0.98 2.645-0.98 4.131 0 1.719 0.474 3.328 1.295 4.705 0.294-1.654 0.851-3.219 1.62-4.652-0.25-0.328-0.399-0.739-0.399-1.182zM10.036 2.489c0.517 0 0.985 0.201 1.336 0.529 1.021-0.439 2.096-0.777 3.215-0.992-1.351-0.779-2.917-1.226-4.587-1.226-1.139 0-2.229 0.209-3.236 0.588 0.799 0.395 1.561 0.855 2.277 1.375 0.292-0.174 0.631-0.274 0.995-0.274zM12.962 11.708c0.122-0.254 0.295-0.479 0.509-0.656-0.578-1.777-1.493-3.404-2.672-4.803-0.234 0.1-0.492 0.154-0.764 0.154-0.425 0-0.816-0.137-1.137-0.365-0.71 0.539-1.367 1.143-1.964 1.803 0.188 0.299 0.297 0.652 0.297 1.031 0 0.203-0.031 0.4-0.090 0.586 1.717 1.146 3.694 1.934 5.821 2.25zM15.501 14.351c0.026 0.371 0.041 0.744 0.041 1.121 0 0.664-0.042 1.318-0.122 1.961 1.56-1.139 2.748-2.758 3.347-4.639-0.71 0.172-1.438 0.295-2.181 0.365-0.173 0.537-0.572 0.969-1.085 1.192zM12.504 13.024c-2.272-0.377-4.377-1.244-6.21-2.484-0.298 0.182-0.647 0.289-1.021 0.289-0.139 0-0.272-0.014-0.402-0.041-0.877 1.662-1.438 3.517-1.599 5.484 0.876 0.94 1.944 1.697 3.145 2.205 1.492-2.293 3.576-4.189 6.087-5.453zM16.176 3.181c-1.475 0.143-2.883 0.514-4.193 1.068 0.006 0.066 0.010 0.131 0.010 0.197 0 0.309-0.074 0.6-0.201 0.859 1.311 1.539 2.327 3.33 2.969 5.291 0.797 0.016 1.477 0.502 1.77 1.195 0.886-0.090 1.748-0.26 2.578-0.504 0.060-0.42 0.092-0.85 0.092-1.287-0.001-2.704-1.167-5.136-3.025-6.819zM13.489 14.069c-2.344 1.098-4.304 2.789-5.723 4.856 0.715 0.179 1.463 0.275 2.234 0.275 1.387 0 2.702-0.309 3.882-0.859 0.19-0.928 0.29-1.887 0.29-2.869 0-0.355-0.016-0.707-0.043-1.055-0.236-0.076-0.453-0.193-0.64-0.348z"></path>
</symbol>
<symbol id="icon-phone" viewBox="0 0 20 20">
<title>phone</title>
<path d="M11.229 11.229c-1.583 1.582-3.417 3.096-4.142 2.371-1.037-1.037-1.677-1.941-3.965-0.102-2.287 1.838-0.53 3.064 0.475 4.068 1.16 1.16 5.484 0.062 9.758-4.211 4.273-4.274 5.368-8.598 4.207-9.758-1.005-1.006-2.225-2.762-4.063-0.475s-0.936 2.927 0.103 3.965c0.722 0.725-0.791 2.559-2.373 4.142z"></path>
</symbol>
<symbol id="icon-calendar" viewBox="0 0 32 32">
<title>calendar</title>
<path d="M10 12h4v4h-4zM16 12h4v4h-4zM22 12h4v4h-4zM4 24h4v4h-4zM10 24h4v4h-4zM16 24h4v4h-4zM10 18h4v4h-4zM16 18h4v4h-4zM22 18h4v4h-4zM4 18h4v4h-4zM26 0v2h-4v-2h-14v2h-4v-2h-4v32h30v-32h-4zM28 30h-26v-22h26v22z"></path>
</symbol>
<symbol id="icon-office" viewBox="0 0 32 32">
<title>office</title>
<path d="M0 32h16v-32h-16v32zM10 4h4v4h-4v-4zM10 12h4v4h-4v-4zM10 20h4v4h-4v-4zM2 4h4v4h-4v-4zM2 12h4v4h-4v-4zM2 20h4v4h-4v-4zM18 10h14v2h-14zM18 32h4v-8h6v8h4v-18h-14z"></path>
</symbol>
<symbol id="icon-home" viewBox="0 0 32 32">
<title>home</title>
<path d="M32 18.451l-16-12.42-16 12.42v-5.064l16-12.42 16 12.42zM28 18v12h-8v-8h-8v8h-8v-12l12-9z"></path>
</symbol>
<symbol id="icon-linkedin" viewBox="0 0 32 32">
<title>linkedin</title>
<path d="M29 0h-26c-1.65 0-3 1.35-3 3v26c0 1.65 1.35 3 3 3h26c1.65 0 3-1.35 3-3v-26c0-1.65-1.35-3-3-3zM12 26h-4v-14h4v14zM10 10c-1.106 0-2-0.894-2-2s0.894-2 2-2c1.106 0 2 0.894 2 2s-0.894 2-2 2zM26 26h-4v-8c0-1.106-0.894-2-2-2s-2 0.894-2 2v8h-4v-14h4v2.481c0.825-1.131 2.087-2.481 3.5-2.481 2.488 0 4.5 2.238 4.5 5v9z"></path>
</symbol>
<symbol id="icon-facebook" viewBox="0 0 32 32">
<title>facebook</title>
<path d="M29 0h-26c-1.65 0-3 1.35-3 3v26c0 1.65 1.35 3 3 3h13v-14h-4v-4h4v-2c0-3.306 2.694-6 6-6h4v4h-4c-1.1 0-2 0.9-2 2v2h6l-1 4h-5v14h9c1.65 0 3-1.35 3-3v-26c0-1.65-1.35-3-3-3z"></path>
</symbol>
<symbol id="icon-clock" viewBox="0 0 32 32">
<title>clock</title>
<path d="M20.586 23.414l-6.586-6.586v-8.828h4v7.172l5.414 5.414zM16 0c-8.837 0-16 7.163-16 16s7.163 16 16 16 16-7.163 16-16-7.163-16-16-16zM16 28c-6.627 0-12-5.373-12-12s5.373-12 12-12c6.627 0 12 5.373 12 12s-5.373 12-12 12z"></path>
</symbol>
<symbol id="icon-bg_bldg" viewBox="0 0 32 32">
<title>bg_bldg</title>
<path d="M20.586 23.414l-6.586-6.586v-8.828h4v7.172l5.414 5.414zM16 0c-8.837 0-16 7.163-16 16s7.163 16 16 16 16-7.163 16-16-7.163-16-16-16zM16 28c-6.627 0-12-5.373-12-12s5.373-12 12-12c6.627 0 12 5.373 12 12s-5.373 12-12 12z"></path>
</symbol>
</defs>
</svg>
